<?xml version="1.0" encoding="UTF-8"?>
<svg version="1.1" xmlns="http://www.w3.org/2000/svg" width="28" height="22">
<path d="M0 0 C9.24 0 18.48 0 28 0 C28 0.99 28 1.98 28 3 C26.02 3 24.04 3 22 3 C22 8.94 22 14.88 22 21 C14.41057921 22.00448216 7.61835923 21.79727015 0 21 C0 14.07 0 7.14 0 0 Z M3 3 C3 4.98 3 6.96 3 9 C5.37374861 9.33425735 5.37374861 9.33425735 8 9 C9.84315671 7.0995533 9.84315671 7.0995533 11 5 C9.10244856 2.65026182 9.10244856 2.65026182 5.875 2.875 C4.92625 2.91625 3.9775 2.9575 3 3 Z M14 3 C14 3.66 14 4.32 14 5 C15.32 5.33 16.64 5.66 18 6 C18 5.01 18 4.02 18 3 C16.68 3 15.36 3 14 3 Z M14 8 C13.01 9.485 13.01 9.485 12 11 C12.66 11 13.32 11 14 11 C14 13.64 14 16.28 14 19 C15.32 18.34 16.64 17.68 18 17 C18 14.69 18 12.38 18 10 C16.68 9.34 15.36 8.68 14 8 Z M3 12 C3 13.98 3 15.96 3 18 C4.65 18 6.3 18 8 18 C7.67 16.02 7.34 14.04 7 12 C5.68 12 4.36 12 3 12 Z M10 13 C10.33 14.32 10.66 15.64 11 17 C11.33 16.01 11.66 15.02 12 14 C11.34 13.67 10.68 13.34 10 13 Z " fill="#FD782F" transform="translate(0,0)"/>
<path d="M0 0 C0.08075665 2.29109597 0.13907731 4.58299267 0.1875 6.875 C0.22230469 8.15117187 0.25710937 9.42734375 0.29296875 10.7421875 C0.19628906 11.81726563 0.09960938 12.89234375 0 14 C-3 16 -3 16 -6 15.875 C-9 15 -9 15 -10.9375 13.5 C-12.56128907 9.67931984 -12.02110396 5.97693121 -11 2 C-7.43995216 -1.56004784 -4.6880398 -1.03059387 0 0 Z M-5 2 C-5.99 3.485 -5.99 3.485 -7 5 C-6.34 5 -5.68 5 -5 5 C-5 7.64 -5 10.28 -5 13 C-3.68 12.34 -2.36 11.68 -1 11 C-1 8.69 -1 6.38 -1 4 C-2.32 3.34 -3.64 2.68 -5 2 Z M-9 7 C-8.67 8.32 -8.34 9.64 -8 11 C-7.67 10.01 -7.34 9.02 -7 8 C-7.66 7.67 -8.32 7.34 -9 7 Z " fill="#3A70EB" transform="translate(19,6)"/>
<path d="M0 0 C5.28 0 10.56 0 16 0 C16 0.99 16 1.98 16 3 C14.02 3 12.04 3 10 3 C10 8.94 10 14.88 10 21 C8.68 20.67 7.36 20.34 6 20 C6 14.39 6 8.78 6 3 C4.02 3 2.04 3 0 3 C0 2.01 0 1.02 0 0 Z " fill="#61C115" transform="translate(12,0)"/>
<path d="M0 0 C-0.33 1.32 -0.66 2.64 -1 4 C-1.7425 3.7525 -2.485 3.505 -3.25 3.25 C-4.1575 3.1675 -5.065 3.085 -6 3 C-8.33454661 4.83358335 -8.33454661 4.83358335 -10 7 C-10.33 6.34 -10.66 5.68 -11 5 C-8.86368159 0.39004975 -8.86368159 0.39004975 -6.0625 -0.875 C-3.82087733 -1.01085592 -2.13005882 -0.68466176 0 0 Z " fill="#3A6BF5" transform="translate(18,6)"/>
<path d="M0 0 C0.66 0.33 1.32 0.66 2 1 C2 1.66 2 2.32 2 3 C2.32205743 5.33491639 2.65458149 7.66842508 3 10 C1.68 10 0.36 10 -1 10 C-1.9765625 3.9453125 -1.9765625 3.9453125 -2 2 C-1.34 1.34 -0.68 0.68 0 0 Z " fill="#FC782F" transform="translate(12,8)"/>
</svg>
